<?xml version="1.0" standalone="no"?>
<!DOCTYPE svg PUBLIC "-//W3C//DTD SVG 20010904//EN"
 "http://www.w3.org/TR/2001/REC-SVG-20010904/DTD/svg10.dtd">
<svg version="1.0" xmlns="http://www.w3.org/2000/svg"
 width="300.000000pt" height="300.000000pt" viewBox="0 0 300.000000 300.000000"
 preserveAspectRatio="xMidYMid meet">
<metadata>
Created by potrace 1.10, written by Peter Selinger 2001-2011
</metadata>
<g transform="translate(0.000000,300.000000) scale(0.100000,-0.100000)"
fill="#000000" stroke="none">
<path d="M1281 2794 c-176 -30 -383 -116 -536 -222 -101 -70 -245 -214 -314
-312 -321 -456 -321 -1064 0 -1520 69 -98 213 -242 314 -312 456 -318 1060
-317 1515 3 96 68 241 213 309 309 321 456 321 1064 0 1520 -68 96 -213 241
-309 309 -157 111 -365 195 -552 226 -114 18 -314 18 -427 -1z m408 -40 c328
-48 630 -228 833 -498 84 -112 171 -294 210 -441 30 -115 32 -128 32 -315 0
-187 -1 -200 -31 -313 -60 -225 -171 -417 -337 -583 -183 -183 -377 -289 -641
-350 -111 -26 -385 -26 -502 -1 -263 56 -465 167 -654 356 -141 142 -225 272
-295 459 -67 177 -92 439 -59 632 46 281 172 520 377 716 285 273 672 396
1067 338z"/>
<path d="M1403 2275 c-146 -41 -252 -142 -298 -284 -28 -86 -18 -210 24 -295
43 -88 114 -159 198 -199 63 -30 76 -32 173 -32 97 0 110 2 171 31 84 40 158
114 201 201 31 64 33 73 33 178 0 97 -3 116 -26 165 -64 137 -207 237 -350
246 -48 2 -93 -1 -126 -11z m192 -40 c147 -39 250 -155 275 -310 26 -157 -66
-322 -218 -393 -49 -23 -70 -27 -152 -27 -82 0 -103 4 -152 27 -79 37 -142 98
-181 177 -30 61 -32 73 -32 166 0 90 3 106 29 160 62 125 193 211 331 214 23
1 68 -6 100 -14z"/>
<path d="M1400 1414 c-350 -45 -627 -186 -674 -344 -22 -74 -22 -250 0 -296
32 -67 -1 -64 779 -64 688 0 708 1 735 20 44 32 53 65 48 202 -3 109 -7 129
-30 173 -66 128 -255 231 -518 285 -98 20 -273 32 -340 24z m200 -45 c225 -23
465 -109 563 -203 74 -71 81 -92 85 -243 4 -122 3 -132 -17 -152 -21 -21 -24
-21 -731 -21 -697 0 -710 0 -730 20 -18 18 -20 33 -20 133 0 61 4 127 10 146
47 165 341 299 721 330 9 0 63 -4 119 -10z"/>
</g>
</svg>
