<?xml version="1.0" standalone="no"?>
<!DOCTYPE svg PUBLIC "-//W3C//DTD SVG 20010904//EN"
 "http://www.w3.org/TR/2001/REC-SVG-20010904/DTD/svg10.dtd">
<svg version="1.0" xmlns="http://www.w3.org/2000/svg"
 width="300.000000pt" height="191.000000pt" viewBox="0 0 300.000000 191.000000"
 preserveAspectRatio="xMidYMid meet">
<metadata>
Created by potrace 1.10, written by Peter Selinger 2001-2011
</metadata>
<g transform="translate(0.000000,191.000000) scale(0.100000,-0.100000)"
fill="#000000" stroke="none">
<path d="M1013 1760 c-98 -20 -167 -80 -203 -178 -35 -92 -20 -109 37 -42 49
57 89 66 189 39 115 -31 205 -30 271 4 62 32 79 52 37 45 -16 -3 -59 -14 -96
-23 -66 -17 -69 -17 -164 5 -63 14 -116 21 -151 18 -52 -5 -53 -4 -40 16 20
30 74 64 121 77 42 11 131 -1 256 -36 30 -8 83 -15 118 -15 l64 0 -21 -32
c-13 -21 -28 -33 -43 -33 -15 0 -37 -19 -70 -60 -92 -114 -133 -234 -126 -370
l4 -80 -75 0 c-83 0 -120 -17 -160 -74 l-20 -27 78 0 c121 0 179 -45 189 -145
4 -45 3 -51 -11 -46 -44 17 -86 18 -122 3 -70 -30 -72 -38 -13 -53 93 -24 139
-72 146 -155 5 -67 -9 -121 -49 -182 -33 -49 -147 -168 -186 -193 -18 -12 -20
-19 -13 -33 9 -18 14 -17 83 15 159 73 297 107 442 107 158 1 285 -39 407
-128 l49 -36 47 43 c26 23 86 80 135 127 79 77 86 86 70 98 -25 19 -33 17 -64
-12 l-28 -27 -70 42 c-109 66 -200 95 -301 94 -84 0 -236 -30 -307 -59 -48
-21 -40 -4 17 35 65 44 172 157 210 223 78 136 109 325 91 551 -18 227 -15
305 12 357 27 54 70 85 143 101 30 7 53 17 51 23 -6 18 -95 18 -172 1 -194
-43 -265 -170 -251 -452 3 -73 9 -193 12 -266 13 -272 -46 -423 -236 -599 -44
-41 -80 -78 -80 -81 0 -22 38 -1 123 66 30 24 39 26 56 17 16 -8 45 -5 128 14
202 46 294 39 438 -34 133 -68 130 -60 55 -135 -35 -36 -71 -65 -80 -65 -8 0
-33 12 -54 26 -188 128 -447 149 -728 60 -27 -8 -48 -13 -48 -10 0 3 16 26 36
50 28 34 40 42 50 33 27 -22 144 175 184 311 30 101 36 261 20 517 -19 287 1
363 126 487 36 36 61 67 55 70 -5 3 -31 -4 -57 -16 -76 -33 -169 -35 -289 -5
-127 32 -170 37 -222 27z m727 -74 c0 -2 -12 -30 -26 -61 -26 -57 -27 -61 -21
-204 4 -80 10 -184 13 -231 7 -92 -7 -231 -33 -320 -24 -84 -67 -162 -122
-221 l-50 -54 28 80 c40 111 55 223 47 353 -3 59 -9 179 -12 268 -6 149 -5
166 16 228 24 72 56 118 105 147 27 17 55 25 55 15z m-377 -212 c-14 -69 -15
-100 -4 -249 17 -256 15 -405 -9 -502 -18 -76 -78 -214 -98 -227 -4 -3 -6 21
-4 54 5 75 -11 123 -61 177 l-40 43 30 0 c40 0 73 33 73 73 -1 74 -75 168
-144 183 -69 14 -50 34 33 34 82 0 91 13 91 125 0 101 17 174 57 245 26 46 86
130 90 126 1 -1 -5 -38 -14 -82z"/>
</g>
</svg>
